<svg xmlns="http://www.w3.org/2000/svg" viewBox="0 0 48 48" width="48" height="48" fill="none">
  <!-- Keyboard Frame -->
  <rect x="4" y="16" width="26" height="20" rx="3" fill="#2E7D32" fill-opacity="0.12" stroke="#2E7D32" stroke-width="2.5"/>
  <!-- Keyboard Keys Rows -->
  <rect x="8" y="20" width="4" height="3" rx="0.5" fill="#2E7D32"/>
  <rect x="14" y="20" width="4" height="3" rx="0.5" fill="#2E7D32"/>
  <rect x="20" y="20" width="6" height="3" rx="0.5" fill="#2E7D32"/>
  <rect x="8" y="25" width="4" height="3" rx="0.5" fill="#2E7D32"/>
  <rect x="14" y="25" width="4" height="3" rx="0.5" fill="#43A047"/>
  <rect x="20" y="25" width="6" height="3" rx="0.5" fill="#2E7D32"/>
  <rect x="10" y="30" width="14" height="3" rx="0.5" fill="#2E7D32"/>
  <!-- Ergonomic Computer Mouse -->
  <path d="M34 16C38.4183 16 42 19.5817 42 24V30C42 34.4183 38.4183 38 34 38C29.5817 38 26 34.4183 26 30V24C26 19.5817 29.5817 16 34 16Z" fill="#FFFFFF" stroke="#2E7D32" stroke-width="2.5"/>
  <!-- Mouse Scroll Wheel & Center Divider -->
  <line x1="34" y1="16" x2="34" y2="24" stroke="#2E7D32" stroke-width="1.5"/>
  <rect x="33" y="19" width="2" height="4" rx="1" fill="#43A047"/>
</svg>
